<svg width="20" height="20" viewBox="0 0 20 20" fill="none" xmlns="http://www.w3.org/2000/svg">
<path d="M9.64258 4.8418C9.64258 4.80664 9.64844 4.77148 9.6582 4.73828L3.81055 3.06445C3.66797 3.0293 3.55664 3.01562 3.44922 3.01562C2.88867 3.01562 2.28516 3.42383 2.28516 4.32422L2.29687 11.2656C2.29687 11.2793 2.29883 11.291 2.30078 11.3047V13.8984C2.30078 14.2383 2.43359 14.8555 3.33008 15.1465L9.64258 16.9727V4.8418ZM4.12109 7.28906C4.19531 7.01367 4.47852 6.84766 4.75391 6.92188L8.23633 7.84766C8.51172 7.92187 8.67773 8.20508 8.60352 8.48047C8.54102 8.71289 8.33203 8.86523 8.10352 8.86523C8.06055 8.86523 8.01562 8.85938 7.9707 8.84766L4.48828 7.92188C4.21289 7.84961 4.04883 7.56445 4.12109 7.28906ZM8.60547 12.2539C8.54297 12.4863 8.33398 12.6387 8.10547 12.6387C8.0625 12.6387 8.01758 12.6328 7.97266 12.6211L4.49023 11.6953C4.21484 11.6211 4.04883 11.3379 4.12305 11.0625C4.19727 10.7871 4.48047 10.623 4.75586 10.6953L8.23828 11.6211C8.51562 11.6953 8.67969 11.9785 8.60547 12.2539Z" fill="#DEAC41"/>
<path d="M11.0156 4.8418C11.0156 4.80664 11.0098 4.77148 11 4.73828L16.8477 3.06445C16.9902 3.0293 17.1016 3.01562 17.209 3.01562C17.7695 3.01562 18.373 3.42383 18.373 4.32422L18.3613 11.2656C18.3613 11.2793 18.3594 11.291 18.3574 11.3047V13.8984C18.3574 14.2383 18.2246 14.8555 17.3281 15.1465L11.0156 16.9727V4.8418ZM16.5371 7.28906C16.4629 7.01367 16.1797 6.84766 15.9043 6.92188L12.4219 7.84766C12.1465 7.92187 11.9805 8.20508 12.0547 8.48047C12.1172 8.71289 12.3262 8.86523 12.5547 8.86523C12.5977 8.86523 12.6426 8.85938 12.6875 8.84766L16.1699 7.92188C16.4453 7.84961 16.6094 7.56445 16.5371 7.28906ZM12.0527 12.2539C12.1152 12.4863 12.3242 12.6387 12.5527 12.6387C12.5957 12.6387 12.6406 12.6328 12.6855 12.6211L16.168 11.6953C16.4434 11.6211 16.6094 11.3379 16.5352 11.0625C16.4609 10.7871 16.1777 10.623 15.9023 10.6953L12.4199 11.6211C12.1426 11.6953 11.9785 11.9785 12.0527 12.2539Z" fill="#B08934"/>
</svg>
