<svg width="25" height="24" viewBox="0 0 25 24" fill="none" xmlns="http://www.w3.org/2000/svg">
<path d="M20.5084 3.91406C19.1581 3.91406 19.1893 4.58799 18.4818 4.58799C17.7743 4.58799 17.0764 2.5686 15.105 2.5686C13.1336 2.5686 13.1456 4.58799 12.4021 4.58799C11.3924 4.58799 10.5961 3.91406 9.69916 3.91406C8.80219 3.91406 7.37759 6.60738 6.99626 6.60738C6.61492 6.60738 6.45903 5.93345 5.646 5.93345C4.83057 5.93345 3.11577 6.2812 2.26917 9.97222V16.0304C2.26917 16.0304 3.23569 18.0498 4.97207 18.0498C6.70606 18.0498 6.99866 16.7043 6.99866 16.7043V11.3153H7.67498V16.6995C7.67498 16.6995 8.5 18.7189 9.70156 18.7189C10.9031 18.7189 11.7281 17.3734 11.7281 17.3734V9.96982H12.4045V16.028C12.4045 16.028 13.3302 18.0474 15.1074 18.0474C16.8845 18.0474 17.134 16.028 17.134 16.028V9.29829H17.8103V16.7019C17.8103 16.7019 18.2828 18.0474 19.8369 18.0474C21.391 18.0474 23.2137 15.4212 23.2137 11.9892V8.62436C23.2089 8.62436 22.439 3.91406 20.5084 3.91406Z" fill="#292E38"/>
<path d="M17.8055 18.7189C18.3739 18.7189 19.067 19.3928 19.832 19.3928C20.5971 19.3928 21.8586 18.7189 21.8586 18.7189H22.535C22.535 21.2779 20.5084 21.4122 20.5084 21.4122H15.7813C13.5197 21.4122 13.0784 18.7189 13.0784 18.7189H13.7523C13.7523 18.7189 13.7547 19.3928 15.1026 19.3928C16.4504 19.3928 17.2371 18.7189 17.8055 18.7189Z" fill="#EDB023"/>
</svg>
