<svg width="24" height="24" viewBox="0 0 24 24" fill="none" xmlns="http://www.w3.org/2000/svg">
<path d="M21.9971 4.74249C21.9971 4.35775 21.8275 3.98878 21.5257 3.71673C21.2238 3.44468 20.8144 3.29185 20.3875 3.29185H17.7114V2.72532C17.7114 2.53295 17.6266 2.34847 17.4756 2.21244C17.3247 2.07642 17.12 2 16.9066 2C16.6932 2 16.4885 2.07642 16.3375 2.21244C16.1866 2.34847 16.1018 2.53295 16.1018 2.72532V3.29185H7.89231V2.72532C7.89231 2.53295 7.80752 2.34847 7.6566 2.21244C7.50568 2.07642 7.30098 2 7.08755 2C6.87411 2 6.66942 2.07642 6.51849 2.21244C6.36757 2.34847 6.28278 2.53295 6.28278 2.72532V3.29185H3.60659C3.17972 3.29185 2.77033 3.44468 2.46849 3.71673C2.16664 3.98878 1.99707 4.35775 1.99707 4.74249L1.99707 7H21.9971V4.74249Z" fill="#EDB023"/>
<path d="M1.99707 20.3786C1.99707 20.8086 2.16664 21.221 2.46849 21.5251C2.77033 21.8292 3.17972 22 3.60659 22H20.3875C20.8144 22 21.2238 21.8292 21.5257 21.5251C21.8275 21.221 21.9971 20.8086 21.9971 20.3786V9H1.99707V20.3786ZM15.5685 11.9262H16.9971C17.1865 11.9262 17.3682 12.002 17.5021 12.137C17.6361 12.2719 17.7114 12.4549 17.7114 12.6458C17.7114 12.8366 17.6361 13.0196 17.5021 13.1546C17.3682 13.2895 17.1865 13.3653 16.9971 13.3653H15.5685C15.3791 13.3653 15.1974 13.2895 15.0634 13.1546C14.9295 13.0196 14.8542 12.8366 14.8542 12.6458C14.8542 12.4549 14.9295 12.2719 15.0634 12.137C15.1974 12.002 15.3791 11.9262 15.5685 11.9262ZM11.2828 11.9262H12.7114C12.9008 11.9262 13.0825 12.002 13.2164 12.137C13.3504 12.2719 13.4256 12.4549 13.4256 12.6458C13.4256 12.8366 13.3504 13.0196 13.2164 13.1546C13.0825 13.2895 12.9008 13.3653 12.7114 13.3653H11.2828C11.0933 13.3653 10.9117 13.2895 10.7777 13.1546C10.6438 13.0196 10.5685 12.8366 10.5685 12.6458C10.5685 12.4549 10.6438 12.2719 10.7777 12.137C10.9117 12.002 11.0933 11.9262 11.2828 11.9262ZM11.2828 16.2915H12.7114C12.9008 16.2915 13.0825 16.3673 13.2164 16.5023C13.3504 16.6372 13.4256 16.8202 13.4256 17.0111C13.4256 17.2019 13.3504 17.3849 13.2164 17.5199C13.0825 17.6548 12.9008 17.7306 12.7114 17.7306H11.2828C11.0933 17.7306 10.9117 17.6548 10.7777 17.5199C10.6438 17.3849 10.5685 17.2019 10.5685 17.0111C10.5685 16.8202 10.6438 16.6372 10.7777 16.5023C10.9117 16.3673 11.0933 16.2915 11.2828 16.2915ZM6.99707 11.9262H8.42564C8.61508 11.9262 8.79676 12.002 8.93072 12.137C9.06467 12.2719 9.13993 12.4549 9.13993 12.6458C9.13993 12.8366 9.06467 13.0196 8.93072 13.1546C8.79676 13.2895 8.61508 13.3653 8.42564 13.3653H6.99707C6.80763 13.3653 6.62595 13.2895 6.49199 13.1546C6.35804 13.0196 6.28278 12.8366 6.28278 12.6458C6.28278 12.4549 6.35804 12.2719 6.49199 12.137C6.62595 12.002 6.80763 11.9262 6.99707 11.9262ZM6.99707 16.2915H8.42564C8.61508 16.2915 8.79676 16.3673 8.93072 16.5023C9.06467 16.6372 9.13993 16.8202 9.13993 17.0111C9.13993 17.2019 9.06467 17.3849 8.93072 17.5199C8.79676 17.6548 8.61508 17.7306 8.42564 17.7306H6.99707C6.80763 17.7306 6.62595 17.6548 6.49199 17.5199C6.35804 17.3849 6.28278 17.2019 6.28278 17.0111C6.28278 16.8202 6.35804 16.6372 6.49199 16.5023C6.62595 16.3673 6.80763 16.2915 6.99707 16.2915Z" fill="#292E38"/>
</svg>
