<svg width="25" height="24" viewBox="0 0 25 24" fill="none" xmlns="http://www.w3.org/2000/svg">
<path d="M20.3424 8.08575L14.0656 8.1255C14.3604 7.08825 14.5096 6.1665 14.5096 5.355C14.5096 3.51375 12.8964 1.71075 11.2854 1.94475C9.86488 2.151 9.70888 3.37875 9.70888 4.917V6.306C9.70888 8.08875 8.21263 9.6075 6.47788 9.77475L6.24988 9.7725V22.0162H18.6144C19.1751 22.0163 19.7182 21.8206 20.1501 21.463C20.5819 21.1053 20.8754 20.6082 20.9799 20.0572L22.7079 10.941C22.7737 10.5931 22.762 10.2349 22.6736 9.89204C22.5852 9.54916 22.4222 9.23001 22.1963 8.95733C21.9704 8.68465 21.6871 8.46517 21.3667 8.31451C21.0462 8.16386 20.6965 8.08575 20.3424 8.08575Z" fill="#292E38"/>
<path d="M1.74988 20.4375V11.3212C1.74988 10.9025 1.91621 10.501 2.21228 10.2049C2.35888 10.0583 2.53292 9.94201 2.72447 9.86267C2.91601 9.78333 3.1213 9.74249 3.32863 9.74249L4.74988 9.75749V22.0162H3.32863C2.45638 22.0162 1.74988 21.3097 1.74988 20.4375Z" fill="#EDB023"/>
</svg>
