<svg width="48" height="48" viewBox="0 0 48 48" fill="none" xmlns="http://www.w3.org/2000/svg">
<rect x="0.5" y="0.5" width="47" height="47" rx="7.5" stroke="#EBECF0"/>
<path d="M33.9971 16.7425C33.9971 16.3578 33.8275 15.9888 33.5257 15.7167C33.2238 15.4447 32.8144 15.2918 32.3875 15.2918H29.7114V14.7253C29.7114 14.533 29.6266 14.3485 29.4756 14.2124C29.3247 14.0764 29.12 14 28.9066 14C28.6932 14 28.4885 14.0764 28.3375 14.2124C28.1866 14.3485 28.1018 14.533 28.1018 14.7253V15.2918H19.8923V14.7253C19.8923 14.533 19.8075 14.3485 19.6566 14.2124C19.5057 14.0764 19.301 14 19.0875 14C18.8741 14 18.6694 14.0764 18.5185 14.2124C18.3676 14.3485 18.2828 14.533 18.2828 14.7253V15.2918H15.6066C15.1797 15.2918 14.7703 15.4447 14.4685 15.7167C14.1666 15.9888 13.9971 16.3578 13.9971 16.7425V19H33.9971V16.7425Z" fill="#EDB023"/>
<path d="M13.9971 32.3786C13.9971 32.8086 14.1666 33.221 14.4685 33.5251C14.7703 33.8292 15.1797 34 15.6066 34H32.3875C32.8144 34 33.2238 33.8292 33.5257 33.5251C33.8275 33.221 33.9971 32.8086 33.9971 32.3786V21H13.9971V32.3786ZM27.5685 23.9262H28.9971C29.1865 23.9262 29.3682 24.002 29.5021 24.137C29.6361 24.2719 29.7114 24.4549 29.7114 24.6458C29.7114 24.8366 29.6361 25.0196 29.5021 25.1546C29.3682 25.2895 29.1865 25.3653 28.9971 25.3653H27.5685C27.3791 25.3653 27.1974 25.2895 27.0634 25.1546C26.9295 25.0196 26.8542 24.8366 26.8542 24.6458C26.8542 24.4549 26.9295 24.2719 27.0634 24.137C27.1974 24.002 27.3791 23.9262 27.5685 23.9262ZM23.2828 23.9262H24.7114C24.9008 23.9262 25.0825 24.002 25.2164 24.137C25.3504 24.2719 25.4256 24.4549 25.4256 24.6458C25.4256 24.8366 25.3504 25.0196 25.2164 25.1546C25.0825 25.2895 24.9008 25.3653 24.7114 25.3653H23.2828C23.0933 25.3653 22.9117 25.2895 22.7777 25.1546C22.6438 25.0196 22.5685 24.8366 22.5685 24.6458C22.5685 24.4549 22.6438 24.2719 22.7777 24.137C22.9117 24.002 23.0933 23.9262 23.2828 23.9262ZM23.2828 28.2915H24.7114C24.9008 28.2915 25.0825 28.3673 25.2164 28.5023C25.3504 28.6372 25.4256 28.8202 25.4256 29.0111C25.4256 29.2019 25.3504 29.3849 25.2164 29.5199C25.0825 29.6548 24.9008 29.7306 24.7114 29.7306H23.2828C23.0933 29.7306 22.9117 29.6548 22.7777 29.5199C22.6438 29.3849 22.5685 29.2019 22.5685 29.0111C22.5685 28.8202 22.6438 28.6372 22.7777 28.5023C22.9117 28.3673 23.0933 28.2915 23.2828 28.2915ZM18.9971 23.9262H20.4256C20.6151 23.9262 20.7968 24.002 20.9307 24.137C21.0647 24.2719 21.1399 24.4549 21.1399 24.6458C21.1399 24.8366 21.0647 25.0196 20.9307 25.1546C20.7968 25.2895 20.6151 25.3653 20.4256 25.3653H18.9971C18.8076 25.3653 18.6259 25.2895 18.492 25.1546C18.358 25.0196 18.2828 24.8366 18.2828 24.6458C18.2828 24.4549 18.358 24.2719 18.492 24.137C18.6259 24.002 18.8076 23.9262 18.9971 23.9262ZM18.9971 28.2915H20.4256C20.6151 28.2915 20.7968 28.3673 20.9307 28.5023C21.0647 28.6372 21.1399 28.8202 21.1399 29.0111C21.1399 29.2019 21.0647 29.3849 20.9307 29.5199C20.7968 29.6548 20.6151 29.7306 20.4256 29.7306H18.9971C18.8076 29.7306 18.6259 29.6548 18.492 29.5199C18.358 29.3849 18.2828 29.2019 18.2828 29.0111C18.2828 28.8202 18.358 28.6372 18.492 28.5023C18.6259 28.3673 18.8076 28.2915 18.9971 28.2915Z" fill="#292E38"/>
</svg>
