<svg width="20" height="20" viewBox="0 0 20 20" fill="none" xmlns="http://www.w3.org/2000/svg">
<path d="M14.8698 4.20751C15.3272 4.09298 15.7732 3.96238 16.21 3.81806C15.5916 3.19953 14.4193 2.21675 13.64 1.80438C13.9319 2.4275 14.6491 3.53629 14.8698 4.20751ZM6.0083 14.2965C7.29098 14.0652 8.62651 13.9415 9.99885 13.9415C11.3758 13.9415 12.7159 14.0652 14.0009 14.2988C14.2882 13.1717 14.4629 11.9873 14.5135 10.764H5.49798C5.54626 11.9873 5.72096 13.1717 6.0083 14.2965ZM9.99885 6.06542C8.6357 6.06542 7.31165 5.94401 6.03817 5.71492C5.74164 6.84203 5.55774 8.02871 5.50257 9.2566H14.5089C14.4514 8.02871 14.2698 6.84202 13.9733 5.71263C12.6952 5.94401 11.3643 6.06542 9.99885 6.06542ZM6.41284 4.48243C7.5645 4.68859 8.76441 4.79856 9.99883 4.79856C11.2355 4.79856 12.44 4.68859 13.5963 4.48013C13.2308 3.42863 12.7619 2.43897 12.2079 1.52949C11.5022 1.34622 10.762 1.25 9.99883 1.25C9.24025 1.25 8.50466 1.34622 7.80355 1.5249C7.24956 2.43897 6.78064 3.43091 6.41284 4.48243ZM17.1248 15.1167C18.0259 13.8704 18.6075 12.3814 18.7477 10.764H15.7824C15.7341 12.079 15.5548 13.3527 15.2582 14.5669C15.8973 14.7226 16.5202 14.9082 17.1248 15.1167ZM15.2307 5.44688C15.5364 6.66334 15.7249 7.93935 15.7801 9.2566H18.75C18.6121 7.63466 18.0305 6.13873 17.1271 4.8879C16.5111 5.10096 15.8789 5.28882 15.2307 5.44688ZM5.10259 15.8062C4.6598 15.9178 4.22123 16.0454 3.78774 16.1888C4.39001 16.789 5.53936 17.7603 6.29794 18.1681C6.01749 17.5565 5.31179 16.4614 5.10259 15.8062ZM14.9066 15.8085C14.6974 16.4614 13.9917 17.5519 13.7158 18.159C14.4675 17.7535 15.61 16.7844 16.21 16.1865C15.78 16.0454 15.3453 15.9193 14.9066 15.8085ZM13.6354 15.5313C12.4676 15.3183 11.2516 15.206 9.99883 15.206C8.75065 15.206 7.53924 15.3183 6.37378 15.529C6.72778 16.5691 7.17832 17.5473 7.71624 18.4522C8.44493 18.6469 9.21039 18.75 9.99885 18.75C10.7942 18.75 11.5643 18.6446 12.2952 18.4476C12.8308 17.5473 13.2814 16.5691 13.6354 15.5313ZM2.87287 4.88792C1.96948 6.13642 1.38792 7.63238 1.25 9.2566H4.23142C4.28659 7.93935 4.47507 6.66563 4.7785 5.44918C4.12568 5.29111 3.48893 5.10326 2.87287 4.88792ZM1.25 10.764C1.39021 12.3814 1.97179 13.8727 2.87287 15.1167C3.48997 14.9031 4.11666 14.7181 4.75093 14.5623C4.4544 13.3481 4.27511 12.0767 4.22681 10.7617H1.25V10.764ZM5.13711 4.2098C5.36009 3.53398 6.07956 2.42293 6.37151 1.79522C5.58304 2.20759 4.40842 3.19494 3.78546 3.81806C4.23081 3.96584 4.68169 4.09651 5.13711 4.2098Z" fill="#292E38"/>
</svg>
