<svg width="20" height="20" viewBox="0 0 20 20" fill="none" xmlns="http://www.w3.org/2000/svg">
<path d="M16.4246 4H3.57548C3.04599 4 2.79847 4.57889 3.19617 4.8876L9.62072 9.8738C9.72554 9.95514 9.86033 10 9.9999 10C10.1395 10 10.2743 9.95514 10.3791 9.8738L16.8036 4.8876C17.2016 4.57889 16.9541 4 16.4246 4Z" fill="#292E38"/>
<path d="M9.29547 11.6499L2.8856 6.13117C2.54107 5.8343 2 6.07399 2 6.52336V14.9556C2 15.2326 2.11238 15.4982 2.31242 15.6941C2.51246 15.89 2.78377 16 3.06667 16H16.9333C17.2162 16 17.4875 15.89 17.6876 15.6941C17.8876 15.4982 18 15.2326 18 14.9556V6.52336C18 6.07399 17.4589 5.83456 17.1144 6.13117L10.7043 11.6499C10.5096 11.8176 10.2592 11.9101 9.99987 11.9101C9.74058 11.9101 9.49017 11.8176 9.29547 11.6499Z" fill="#292E38"/>
</svg>
