<svg width="16" height="16" viewBox="0 0 16 16" fill="none" xmlns="http://www.w3.org/2000/svg">
<path d="M5.20009 1.59998C5.06676 1.39998 4.86676 1.33331 4.66676 1.33331C4.46676 1.33331 4.26676 1.39998 4.20009 1.53331L1.53343 4.86665C1.26676 5.19998 1.26676 5.59998 1.60009 5.86665C1.86676 6.06665 2.33343 6.06665 2.53343 5.73331L4.00009 3.93331V14C4.00009 14.4 4.26676 14.6666 4.66676 14.6666C5.06676 14.6666 5.33343 14.4 5.33343 14V3.93331L6.80009 5.79998C6.93343 5.93331 7.13343 5.99998 7.33343 5.99998C7.46676 5.99998 7.60009 5.93331 7.73343 5.86665C8.00009 5.66665 8.06676 5.19998 7.86676 4.93331L5.20009 1.59998Z" fill="#2DB880"/>
<path d="M12.859 14.4C12.7257 14.6 12.5257 14.6667 12.3257 14.6667C12.1257 14.6667 11.9257 14.6 11.859 14.4667L9.19236 11.1334C8.9257 10.8 8.9257 10.4 9.25903 10.1334C9.5257 9.93335 9.99236 9.93335 10.1924 10.2667L11.659 12.0667V2.00002C11.659 1.60002 11.9257 1.33335 12.3257 1.33335C12.7257 1.33335 12.9924 1.60002 12.9924 2.00002V12.0667L14.459 10.2C14.5924 10.0667 14.7924 10 14.9924 10C15.1257 10 15.259 10.0667 15.3924 10.1334C15.659 10.3334 15.7257 10.8 15.5257 11.0667L12.859 14.4Z" fill="#EE4456"/>
</svg>
