<svg width="20" height="20" viewBox="0 0 20 20" fill="none" xmlns="http://www.w3.org/2000/svg">
<path d="M14.2489 7.78802H4.98035C4.45581 7.79026 3.9534 7.99962 3.5825 8.37053C3.2116 8.74143 3.00224 9.24384 3 9.76837V16.0239C3.00224 16.548 3.21174 17.05 3.58276 17.4202C3.95379 17.7904 4.4562 17.9989 4.98035 18H14.2489C14.773 17.9989 15.2754 17.7904 15.6465 17.4202C16.0175 17.05 16.227 16.548 16.2292 16.0239V9.76837C16.227 9.24384 16.0176 8.74143 15.6467 8.37053C15.2758 7.99962 14.7734 7.79026 14.2489 7.78802ZM10.4242 13.2276V15.2802H8.7923V13.2234C8.47624 13.0421 8.22891 12.7616 8.08874 12.4253C7.94856 12.089 7.92341 11.7158 8.01718 11.3638C8.11096 11.0117 8.3184 10.7005 8.60728 10.4785C8.89616 10.2565 9.25028 10.1361 9.61461 10.1361C9.97894 10.1361 10.3331 10.2565 10.6219 10.4785C10.9108 10.7005 11.1183 11.0117 11.212 11.3638C11.3058 11.7158 11.2807 12.089 11.1405 12.4253C11.0003 12.7616 10.753 13.0421 10.4369 13.2234L10.4242 13.2276Z" fill="#292E38"/>
<path d="M13.9726 7.84329H12.6977V6.35591C12.6977 5.53878 12.3731 4.75511 11.7953 4.17731C11.2175 3.59951 10.4338 3.2749 9.61665 3.2749C8.79952 3.2749 8.01585 3.59951 7.43805 4.17731C6.86025 4.75511 6.53564 5.53878 6.53564 6.35591V7.84329H5.26074V6.35591C5.26074 5.20065 5.71967 4.09271 6.53656 3.27582C7.35345 2.45892 8.46139 2 9.61665 2C10.7719 2 11.8799 2.45892 12.6967 3.27582C13.5136 4.09271 13.9726 5.20065 13.9726 6.35591V7.84329Z" fill="#292E38"/>
</svg>
